<svg xmlns="http://www.w3.org/2000/svg" width="26" height="18" viewBox="0 0 26 18">
  <g id="Group_67" data-name="Group 67" transform="translate(-497.5 -9197.782)">
    <path id="Path_21" data-name="Path 21" d="M522.056,9199.782h-24a1,1,0,1,1,0-2h24a1,1,0,0,1,0,2Z" transform="translate(0.444)" fill="#e7ecef"/>
    <path id="Path_23" data-name="Path 23" d="M522.056,9199.782h-24a1,1,0,1,1,0-2h24a1,1,0,0,1,0,2Z" transform="translate(0.444 16)" fill="#e7ecef"/>
    <path id="Path_22" data-name="Path 22" d="M514.056,9199.782h-16a1,1,0,1,1,0-2h16a1,1,0,0,1,0,2Z" transform="translate(8.444 8)" fill="#e7ecef"/>
  </g>
</svg>
