<svg xmlns="http://www.w3.org/2000/svg" width="160" height="42" viewBox="0 0 160 42">
  <g id="logo" transform="translate(-439.91 -402)">
    <path id="Path_16" data-name="Path 16" d="M35.688,42.6V9.347h5.156v6.122h.322a10.043,10.043,0,0,1,3.221-4.253,9.9,9.9,0,0,1,6.38-1.869h2V14.5h-3.03A11.637,11.637,0,0,0,43.2,16.081a4.655,4.655,0,0,0-2.352,3.962V42.6Z" transform="translate(439.405 401.402)" fill="#e7ecef"/>
    <path id="Path_17" data-name="Path 17" d="M113.9,42a5.31,5.31,0,0,1-4.092-1.494,5.522,5.522,0,0,1-1.385-3.911V13.64h-5.476V9.114h3.093a3.056,3.056,0,0,0,2.288-.669,3.45,3.45,0,0,0,.611-2.326V0h4.639V9.114h7.282V13.64h-7.282V37.474h7.282V42Z" transform="translate(438.455 402)" fill="#e7ecef"/>
    <path id="Path_18" data-name="Path 18" d="M126.349,42.6V38.217L145.23,13.923H126.349V9.347h25.132v3.932L132.213,38.023h19.268V42.6Z" transform="translate(438.124 401.402)" fill="#e7ecef"/>
    <rect id="Rectangle_40" data-name="Rectangle 40" width="5.156" height="33.251" transform="translate(531.093 410.748)" fill="#e7ecef"/>
    <rect id="Rectangle_41" data-name="Rectangle 41" width="3.646" height="3.646" transform="translate(531.092 404.578) rotate(-45)" fill="#e7ecef"/>
    <rect id="Rectangle_42" data-name="Rectangle 42" width="3.646" height="3.646" transform="translate(452.347 428.313) rotate(-45)" fill="#e7ecef"/>
    <rect id="Rectangle_43" data-name="Rectangle 43" width="3.646" height="3.646" transform="translate(594.754 441.422) rotate(-45)" fill="#e7ecef"/>
    <path id="Path_19" data-name="Path 19" d="M85.912,19.179a15.814,15.814,0,0,0-2.7-5.411,12.145,12.145,0,0,0-4.289-3.442,12.71,12.71,0,0,0-5.61-1.209A11.321,11.321,0,0,0,67.358,10.6a9.308,9.308,0,0,0-3.776,4.573h-.256V0H58.17V41.995h5.156V37.471h.256a10.781,10.781,0,0,0,3.884,4.524H79.544a12.124,12.124,0,0,0,3.667-3.12,15.726,15.726,0,0,0,2.7-5.411,25.414,25.414,0,0,0,.937-7.137,25.435,25.435,0,0,0-.937-7.147m-4.6,9.965a10.1,10.1,0,0,1-2.514,7.137A8.92,8.92,0,0,1,71.9,39a11.985,11.985,0,0,1-3.322-.449,8.278,8.278,0,0,1-2.741-1.307,6.537,6.537,0,0,1-1.834-2.116,5.891,5.891,0,0,1-.68-2.857v-12.3a4.982,4.982,0,0,1,.68-2.525,6.414,6.414,0,0,1,1.834-2.018,9.375,9.375,0,0,1,2.741-1.316,11.307,11.307,0,0,1,3.322-.478,8.92,8.92,0,0,1,6.891,2.72A10.1,10.1,0,0,1,81.308,23.5Z" transform="translate(439.088 402)" fill="#e7ecef"/>
    <path id="Path_20" data-name="Path 20" d="M28.935,19.593a16.217,16.217,0,0,0-3.1-5.511,13.679,13.679,0,0,0-4.732-3.51A14.784,14.784,0,0,0,15.015,9.35a14.924,14.924,0,0,0-6.122,1.222,13.358,13.358,0,0,0-4.742,3.51,16.654,16.654,0,0,0-3.056,5.511A22.165,22.165,0,0,0,0,26.751a21.99,21.99,0,0,0,1.094,7.177,16.7,16.7,0,0,0,3.056,5.481,13,13,0,0,0,4.062,3.184H21.778a13.345,13.345,0,0,0,4.062-3.184,16.264,16.264,0,0,0,3.1-5.481,21.99,21.99,0,0,0,1.094-7.177,22.165,22.165,0,0,0-1.094-7.157m-4.446,9.533c0,3.529-.887,6.152-2.642,7.867a9.391,9.391,0,0,1-6.832,2.573,9.391,9.391,0,0,1-6.832-2.573q-2.647-2.573-2.642-7.867V24.365c0-3.529.877-6.142,2.642-7.867a9.391,9.391,0,0,1,6.832-2.573A9.391,9.391,0,0,1,21.847,16.5c1.755,1.725,2.642,4.338,2.642,7.867Z" transform="translate(439.91 401.402)" fill="#e7ecef"/>
  </g>
</svg>
